/* XPM */
static char *_d94b77c9a494f44abc99ca72b5c4dcb6KXQyQ6HAVQKSoKS[] = {
/* columns rows colors chars-per-pixel */
"50 50 211 2 ",
"   c #673935",
".  c #713E39",
"X  c #5F493B",
"o  c #5C5F3E",
"O  c #6B423B",
"+  c #624A3A",
"@  c #72433B",
"#  c #78473E",
"$  c #63533E",
"%  c #675A39",
"&  c #655A3B",
"*  c #69713F",
"=  c #5F4D42",
"-  c #5E5344",
";  c #5B5848",
":  c #624B41",
">  c #6B4E46",
",  c #734E41",
"<  c #7C4C42",
"1  c #774C48",
"2  c #615141",
"3  c #7C5144",
"4  c #765748",
"5  c #795855",
"6  c #5D6A44",
"7  c #596949",
"8  c #587B47",
"9  c #6C6245",
"0  c #6B6646",
"q  c #65654C",
"w  c #77674B",
"e  c #627F46",
"r  c #726F53",
"t  c #7B7B71",
"y  c #814C42",
"u  c #875648",
"i  c #835A54",
"p  c #8A624D",
"a  c #896A5C",
"s  c #9C6553",
"d  c #926C54",
"f  c #987559",
"g  c #A36B56",
"h  c #AC735D",
"j  c #A9795E",
"k  c #B2775F",
"l  c #886B6A",
"z  c #9E786D",
"x  c #887774",
"c  c #987A76",
"v  c #A97864",
"b  c #B47C62",
"n  c #5F8E3C",
"m  c #648635",
"M  c #6A863D",
"N  c #679E32",
"B  c #689F32",
"V  c #639C3C",
"C  c #69993C",
"Z  c #6BA334",
"A  c #6EA936",
"S  c #69A53B",
"D  c #6AA43A",
"F  c #71AD37",
"G  c #70A63C",
"H  c #72AF38",
"J  c #73B037",
"K  c #75B339",
"L  c #78B73B",
"P  c #76B93E",
"I  c #7BBC3C",
"U  c #7FC13D",
"Y  c #128468",
"T  c #378C6E",
"R  c #39926F",
"E  c #5A8344",
"W  c #5E8348",
"Q  c #5E8C4A",
"!  c #5C9546",
"~  c #5E8454",
"^  c #698C47",
"/  c #61824E",
"(  c #638D4A",
")  c #699342",
"_  c #659A45",
"`  c #6C9B42",
"'  c #64934A",
"]  c #638654",
"[  c #798958",
"{  c #5CA144",
"}  c #69A646",
"|  c #6DAB44",
" . c #71A846",
".. c #6DB047",
"X. c #74B442",
"o. c #7BBC41",
"O. c #74B948",
"+. c #6E836E",
"@. c #74856C",
"#. c #62A176",
"$. c #7DC140",
"%. c #81C53F",
"&. c #83C83F",
"*. c #95815F",
"=. c #9C8963",
"-. c #85877E",
";. c #AD8865",
":. c #B68A67",
">. c #B48E68",
",. c #BA956D",
"<. c #BFA575",
"1. c #C38669",
"2. c #CD9370",
"3. c #D29372",
"4. c #D69A77",
"5. c #DC9A77",
"6. c #DC9E78",
"7. c #E19F7B",
"8. c #C6A978",
"9. c #D4A77A",
"0. c #CFB27D",
"q. c #E4A37D",
"w. c #81C540",
"e. c #84C940",
"r. c #88CF42",
"t. c #8BD343",
"y. c #39AFA1",
"u. c #52A28E",
"i. c #928282",
"p. c #988A87",
"a. c #978D8C",
"s. c #9F948B",
"d. c #AA918A",
"f. c #AB9493",
"g. c #A69E9F",
"h. c #B69D95",
"j. c #B49D9B",
"k. c #B3A29A",
"l. c #A7ABAB",
"z. c #BCA8A8",
"x. c #ADB2B4",
"c. c #B5BABC",
"v. c #C99B83",
"b. c #CBAD8B",
"n. c #D8B781",
"m. c #DDBC84",
"M. c #E9AD82",
"N. c #E4AD88",
"B. c #EAB284",
"V. c #EEB987",
"C. c #EABE87",
"Z. c #E9B995",
"A. c #C1ADA8",
"S. c #C9B4A6",
"D. c #D4BAA7",
"F. c #99C4AE",
"G. c #AAC7BA",
"H. c #DDC08A",
"J. c #DED291",
"K. c #E2C186",
"L. c #E5C68A",
"P. c #EBCA8C",
"I. c #F1C48B",
"U. c #F5CD8F",
"Y. c #F0C192",
"T. c #F4CD90",
"R. c #EAD898",
"E. c #F5D593",
"W. c #F8D594",
"Q. c #F6D894",
"!. c #FADC96",
"~. c #F4DA9D",
"^. c #FCDF98",
"/. c #FCE09A",
"(. c #D5CAA9",
"). c #CAC2B7",
"_. c #F8DCA5",
"`. c #F0CDB8",
"'. c #F2D9BA",
"]. c #FBE1A2",
"[. c #EBE1BF",
"{. c #8DD1C8",
"}. c #BAC5C9",
"|. c #BECDD0",
" X c #B8D3D5",
".X c #C6CAC7",
"XX c #D9CECD",
"oX c #D7D9C3",
"OX c #C4D3D6",
"+X c #C7D5D8",
"@X c #C8D7DA",
"#X c #CAD8DB",
"$X c #D4D5D4",
"%X c #EADAC1",
"&X c #E5DDDB",
"*X c #E8DFD9",
"=X c #EDE7C6",
"-X c #FBEECC",
";X c #E6E3D8",
":X c #F7EEDA",
">X c #FCF1D7",
",X c #D9DFE0",
"<X c #DBE3E5",
"1X c #E9E9E5",
"2X c #ECEBEC",
"3X c #F5EEEB",
"4X c #FEF5E1",
"5X c #FBF4EC",
"6X c #F2F4F4",
"7X c #FAF8F5",
"8X c #FEFEFD",
/* pixels */
"N N N N Z H Z N N A H Z N N N Z J I I I A N N A H Z A I I U e.e.%.I I I I L H J A N N N N N N N N N ",
"N N Z H L I L H N A H H H H H A Z H H H L L Z Z A F K I U U U U I H H H H H H A Z N H K K H H H Z N ",
"Z B Z I %.e.%.I Z H L I I I I H N Z Z Z U r.H Z Z I I I %.%.I I L Z Z Z Z A H Z B Z I %.e.U I I H Z ",
"L A B Z H %.J F U %.%.%.%.%.K A Z K L L I I Z A J U %.%.L I %.F Z H K L L I L Z Z L I U e.r.r.I I L ",
"I K A Z F U A Z I %.e.e.%.%.L H Z K L I I I Z H L $.o.w.I I %.Z Z A J L L L K Z Z L I I %.r.r.U I L ",
"I U %.L J J Z B Z I e.e.%.I I I I Z Z I I I I I I ) 6 X.%.e.%.A B N B B Z Z Z H A Z L I I I I %.K N ",
"I U %.L H Z H K K I I I I I r.I A H K K I %.%.I _ [ f ' | I I L K K K K K I %.K H A A A K A A L A N ",
"U U I L J Z L I I I I I I I r.I A I I K I %.w.X.9 >.H.3 e I I I I I I I I %.r.L J F Z Z F Z Z H Z N ",
"t.I Z U %.I %.e.e.U I I I I I U e.e.%.I I I _ q 8.(.).1 e w.e.e.%.I I I I I I I K N F A B F J J Z N ",
"H H H I I I I U e.%.%.%.L A U I H %.e.%.o._ [ ;.P.[.$Xv r ( ( ..w.%.I I I I I I I K I I I A Z Z Z A ",
"N Z K I I I I I %.%.%.%.L Z I L Z I %.w...0 ;.E.~.-X3XN.b 3 , ] o.$.I I I I I I I I %.%.%.H Z Z Z H ",
"N Z K %.%.%.I I I I I Z H I Z F I I I _ 0 8.P.~.oX1X5XZ.M.m.m.=.6 V A K I U %.%.%.I I I I I L H Z Z ",
"Z F K I U e.%.U U U I H L U K L I I ` 6 3 m.^.].;X*X'.Y.U.^.^.0.*./ } I I U U U U I I I I K H J H A ",
"H H H J L e.e.e.%.e.%.I U &.e.%.P } q O < C.^.].:X`.M.W.^.^.^.Q.m.p ~ o.I I I I I I I I I Z Z H L I ",
"B B Z H L &.I H Z I e.%.L Z I I ! q <.j 3 K.^.!.Z.N.M.W.^.^.^.I.B.m.=.6 $.U I I K Z Z Z J Z Z I %.t.",
"A A H I I L L L L I U L H Z H H E , m.9.b P.^.!.M.B.I.!.^.^.^.T.I.Q.>.$ o.I J L K Z Z Z L H H %.e.e.",
"I I I r.%.Z K I t.U L Z Z H Z B 8 , m.I.B.Q.^.!.B.I.^.^.^./.].R.R.Q.>.$ | A Z H H H Z A I I U t.e.I ",
"Z J I H Z B Z Z A Z Z N Z H H Z 8 , m.!.W.^.^.^.W.!.^.^.^.].:XF.#.J.>.$ V Z N Z Z J L L I e.t.t.e.I ",
"N A K Z N N N N N N N N Z K K H E , m.^.^.^.^.^.^.^.^.^.^.~.G.u.T n.;.2 V Z Z Z A K I I I e.t.t.e.I ",
"N N B N N N N N N N N N A I I %.' , m.^.^.^.^.^.].].].^.^.J.R Y T v.v 2 | I I I I I I I I I U t.e.I ",
"N Z A L I I L K K K H Z A I A L Q , m.^.^.^.^.^.>X5X4X].^.J.R Y y.G.p.2 | U %.%.U I I I I I I I K A ",
"Z A K U %.e.U I I I I Z H I Z H Q , m.^.^.^.m.,.h.XX7X>X-X=XF.F.{. Xk.f /  .%.%.%.I I I I I L J A Z ",
"J J J J L e.e.e.e.e.%.I U e.e.%.' 9 0.E.^.^.8.i 5 z.8X8X8X7X1X6X6X#XS.1.4 C I I I I I I I Z Z H L I ",
"Z Z Z H L &.I L H U e.%.I H I I I  .r ,.!.^.'.&X&X3X8X8X8X2Xc A.6X@Xs.4  .I I I L A A H K Z Z L U r.",
"Z Z Z K I U L H Z I %.%.K Z L L I H ; j C.I.N.j.j.XX8X8X8X6Xz.j.j.a.+.' w.I I I K Z N Z J Z Z I &.t.",
"L L I e.%.Z K I r.U I Z A H Z Z Z S 7 d 2.3.h y @ d.&X6X6X6X2Xf.O = Q I I H Z H J H Z Z I I I r.e.U ",
"J L I U I Z F L U L H Z Z H Z Z B Z { 8 , # s 1.< 1 l }.@X@XOXi.- ! J L J Z B A F J A H I U e.t.e.I ",
"N H I Z N N N N N N N N Z J J A N N N V 8 + y g ;.b v c i.i.i.+.E N Z H B N N N Z J I I I r.t.t.e.I ",
"N Z Z B N N N N N N N N A I I U e.I L L o.% @ p K.I.6.u 1 5 5 ] S N I r.I L L L L I I I I I %.t.e.I ",
"N N N N Z Z Z N N Z Z N Z J K I w.I I I P % f K.Q.Q.P.4.b.c.$Xs.6 V I e.I I I L L K K K K K L U I K ",
"N N N B Z H Z B N A H Z B B B Z H I I | ^ =.0.!.I.9.,.6.D.#X6Xf.- | I I I L J H A N B B B B B B N N ",
"N N Z I U %.U I N A J L L L L H Z Z S ] a L.!.T.4.s < 3.D.#X2Xf.= ! S Z Z A H Z Z N I I I I L L A N ",
"Z Z Z I U e.U I A K L I I I P H B V 7 s.;X_.T.9.u . # 3.D.OXOXi.  X 8 Z Z H J Z Z Z I %.e.%.U I J Z ",
"I H B Z F %.H A %.%.%.w.Q 8 E S Z G ; f.7X>X%XS.1 u k 5.Z.(.p.5     8 P I I I Z Z I I I e.t.t.I I I ",
"I I L F H I Z Z J U e.e.% @ 4 ` C ) - f.6X6X,Xx.i h q.M.I.L.3     + E A A A A A A F L I U %.%.%.L A ",
"I U %.L J H Z Z Z I %.%.% f 0.w + + O i.+X@Xg.i 1.5.M.U.!.P.y   X n N Z Z Z Z H A Z K I I I I %.K N ",
"I U %.L H B K I I I I I _ [ ;.>.>.>.j z i.i.c h g 1.q.V.T.E.,.p $ | I I I &.t.L J H Z Z J Z Z H Z N ",
"e.I K I I H I U U I I I I ` 0 8.m.n.2.s . < h 3.y s 2.q.V.E.Q.,.w } | | } o.%.I J Z Z Z Z Z A H Z N ",
"r.I Z U %.I %.&.e.U I I I P | 9 @ @ @ . # 1.5.3.< O 3 3.q.M.Q.Q.n.4 : : = ^ P I K Z H H Z F H H Z Z ",
"Z A H I I I I U e.%.%.%.L Z U C 7 O g k b 5.1.d M m M d :.q.V.T.~.S.A.z.g.@.W P I L U %.U A Z Z Z H ",
"N Z K I I I I I %.%.%.I K Z I G / 5 v.N.7.3.f 0 Z F F * d 2.q.V._.5X8X6X+Xi.$ K I I %.%.%.H Z Z Z A ",
"N Z K %.e.e.I I I I I Z H I V o x c..XD.4.u * K w.e.e.o.^ u 3.q.Z.5X8X6XOXi.% o.%.I I I I I I J Z N ",
"F H J L I e.%.%.%.%.%.L I %.X.$ x |.OX.XA.1 % M %.U L Z X.^ d d.).<X<X$Xa.[ ) I I I I I I A Z H K L ",
"A A F H L e.%.I I %.%.U I I o.6 t x.|.OX}.l 1 + P L H A I O.7 -.x.x.x.l.r ` I I I K K L L Z Z K I %.",
"B B Z H L %.L H Z I e.%.L Z I P ' 5 x.|.}.}.i.2 H Z A I K K P / > > > q O.I I I K B N Z J Z Z I &.t.",
"L L L %.%.A L I %.U I H A F Z Z V ( t x x x @. .U I I I I I I | ) ) ) ` I J Z J J F Z Z I L I r.e.%.",
"L I I &.U Z H I e.I K Z Z H Z Z N S 6 % % % ^ U %.U U U I I I L L L I I L A Z A H J Z A I I %.t.e.I ",
"Z H I Z Z N Z Z Z Z Z N Z J H Z B B N V A A B H K Z L t.A Z J Z Z Z A J Z Z N Z Z J L I I r.t.t.e.I ",
"N Z F Z N N N N N N N N A L L L I J H H I I H A Z Z H I H A Z Z Z B K I H H H H J L I I I %.e.t.e.I ",
"N N N N N N N N N N N N A I I %.t.U I I r.t.I A Z H A N L K N H H Z I t.I I I I I I I I I I U t.e.I "
};
