/* XPM */
static char *a60195c651c3491a8fbc5dc4621c7b160Q6w3jIkbuUcyjbg[] = {
/* columns rows colors chars-per-pixel */
"50 50 205 2 ",
"   c #673633",
".  c #6A3A36",
"X  c #713E39",
"o  c #69463C",
"O  c #624C3C",
"+  c #72433C",
"@  c #7A463F",
"#  c #78493F",
"$  c #64593B",
"%  c #5D7C3E",
"&  c #656C3E",
"*  c #66703D",
"=  c #617B38",
"-  c #5E4D42",
";  c #5A5A46",
":  c #6D4442",
">  c #654B42",
",  c #6A4C43",
"<  c #744B42",
"1  c #764C46",
"2  c #6A5547",
"3  c #765A47",
"4  c #7A5452",
"5  c #556647",
"6  c #5C6545",
"7  c #536C4A",
"8  c #567249",
"9  c #5A7649",
"0  c #5E7E52",
"q  c #636B43",
"w  c #66694A",
"e  c #776948",
"r  c #687746",
"t  c #64754C",
"y  c #757350",
"u  c #797766",
"i  c #7D766D",
"p  c #85554B",
"a  c #86544B",
"s  c #8C5A4B",
"d  c #915C4C",
"f  c #86654E",
"g  c #8A624E",
"h  c #8B6556",
"j  c #9B6453",
"k  c #936A52",
"l  c #966A57",
"z  c #8A7057",
"x  c #997559",
"c  c #9D7E5E",
"v  c #A06754",
"b  c #A26A56",
"n  c #A96F5A",
"m  c #A7745B",
"M  c #886663",
"N  c #836D6A",
"B  c #9A7B67",
"V  c #987978",
"C  c #A47D61",
"Z  c #B47A61",
"A  c #B37E6A",
"S  c #5E8C3E",
"D  c #5D913F",
"F  c #62873B",
"G  c #708F3C",
"H  c #679E32",
"J  c #689F32",
"K  c #66943B",
"L  c #749F3B",
"P  c #67A135",
"I  c #6AA334",
"U  c #6EA936",
"Y  c #6BA33E",
"T  c #6EA93B",
"R  c #71AD37",
"E  c #73A53E",
"W  c #72AF38",
"Q  c #73B037",
"!  c #75B339",
"~  c #78B73B",
"^  c #7BBC3C",
"/  c #7FC13D",
"(  c #148569",
")  c #2F9076",
"_  c #57874C",
"`  c #598C4C",
"'  c #728D4D",
"]  c #699744",
"[  c #678656",
"{  c #6A9653",
"}  c #5DA24E",
"|  c #65A645",
" . c #6CA545",
".. c #6CAB45",
"X. c #71A543",
"o. c #73AD42",
"O. c #79AC41",
"+. c #6CB145",
"@. c #74B444",
"#. c #74B647",
"$. c #7BBB43",
"%. c #7A9674",
"&. c #7EC242",
"*. c #81C53F",
"=. c #83C83F",
"-. c #868554",
";. c #9D8A64",
":. c #92837D",
">. c #AA8562",
",. c #B48163",
"<. c #BD8165",
"1. c #A7976B",
"2. c #B4956A",
"3. c #84A97B",
"4. c #C48B6D",
"5. c #CB8C6D",
"6. c #CB9A77",
"7. c #D59573",
"8. c #DA9B77",
"9. c #DD9D79",
"0. c #E19F7A",
"q. c #C8AA78",
"w. c #D8A479",
"e. c #D0B37D",
"r. c #E4A27C",
"t. c #E0AB7E",
"y. c #83C740",
"u. c #88CF42",
"i. c #8BD343",
"p. c #169B84",
"a. c #4DA590",
"s. c #52BFB1",
"d. c #71B0A0",
"f. c #898982",
"g. c #978B88",
"h. c #998F90",
"j. c #9A9595",
"k. c #9C9C9B",
"l. c #A49593",
"z. c #98B886",
"x. c #B9A590",
"c. c #A29FA0",
"v. c #A8A7A8",
"b. c #B2B1AA",
"n. c #ACB2B4",
"m. c #B7BBBB",
"M. c #C09986",
"N. c #DDBC83",
"B. c #D4BC95",
"V. c #E6AB84",
"C. c #E9AB81",
"Z. c #E1B381",
"A. c #EBB687",
"S. c #C3B2A6",
"D. c #D2BBAA",
"F. c #C8B7B6",
"G. c #B6C695",
"H. c #DFC085",
"J. c #E0C186",
"K. c #E4C589",
"L. c #EDC78B",
"P. c #EBCC8D",
"I. c #F1C58C",
"U. c #F4CB8E",
"Y. c #E9C89A",
"T. c #F5CE91",
"R. c #EBD196",
"E. c #F2D292",
"W. c #F6D896",
"Q. c #FADC96",
"!. c #FCDF98",
"~. c #FCE09B",
"^. c #D6C2B4",
"/. c #E9DCAE",
"(. c #F9DCA3",
"). c #EDD1B4",
"_. c #E8E2B8",
"`. c #FBE6B4",
"'. c #B6BFC2",
"]. c #8ACCC8",
"[. c #BAC4C5",
"{. c #B7D7CC",
"}. c #BECED1",
"|. c #BFD1D5",
" X c #C6CACA",
".X c #D3C5C5",
"XX c #C8D4CF",
"oX c #D5D5C8",
"OX c #C1D2D6",
"+X c #C3D5D9",
"@X c #DAD8D6",
"#X c #E2CEC4",
"$X c #F5DCCD",
"%X c #EDE6C2",
"&X c #FDECC6",
"*X c #F6EBD8",
"=X c #FDF2D5",
"-X c #D9E6E7",
";X c #E8E9E8",
":X c #F2EDEB",
">X c #FBF6E6",
",X c #F3F1EF",
"<X c #E5F3F1",
"1X c #F9F7F3",
"2X c #FEFEFD",
/* pixels */
"H H H H P W I H H U W P H H H I Q ^ ^ ^ I H H U W P U ^ ^ / y.y.*.^ ^ ^ ^ ~ Q Q U H H H H H H H H H ",
"H H P W ~ ^ ~ W H U W W W W W U I W W W ~ ~ I I U R ! ^ / / / / ^ W W W W W W U I H W ! ! W W W I H ",
"P J P ^ *.y.*.^ P W ~ ^ ^ ^ ^ W H P P P / u.W I I ^ ^ ^ *.*.^ ^ ~ P P P P U W P J P ^ *.y./ ^ ^ W P ",
"~ U J I W *.Q R / *.*.*.*.*.! U P ! ~ ~ ^ ^ P U Q / *.*.~ ^ *.R I W ! ~ ~ ^ ~ P I ~ ^ / y.u.u.^ ^ ~ ",
"^ ! U I R / U I ^ *.y.y.*.*.~ W I ! ~ ^ ^ ^ I } } / *.*.^ ^ *.I P U Q ~ ~ ~ ! I I ~ ^ ^ *.u.u./ ^ ~ ",
"^ / *.~ Q Q I J P ^ y.y.*.^ ^ ^ ^ I I ^ ^ ^ ~ t q ~ ^ ^ *.y.*.U J J J J P P P W U P ~ ^ ^ ^ ^ *.! H ",
"^ / *.~ W I W ! ! ^ ^ ^ ^ ^ u.^ U Q ! ! ^ @.9 1.2.t  .^ ^ ^ ^ ~ ! ! ! ! ! ^ *.! W U U U ! U U ~ U H ",
"/ / ^ ~ Q I ~ ^ ^ ^ ^ ^ ^ ^ u.^ U ^ ^ ! ^ o.> x.B.;.'  .^ ^ ^ ^ ^ ^ ^ ^ ^ *.u.~ Q R I I R I I W I H ",
"i.^ I / *.^ *.y.y./ ^ ^ ^ ^ ^ / y.y.*.~ ~  .2 v.oXR.c t $.y.y.y.*.^ ^ ^ ^ ^ ^ ^ ! H R U J R Q Q I H ",
"W W W ^ ^ ^ ^ / y.*.*.*.~ U / ^ W / $.q $ e 4.#X*X(.K.2.w @.i.u.y.*.^ ^ ^ ^ ^ ^ ^ ! ^ ^ ^ U I I I U ",
"H I ! ^ ^ ^ ^ ^ *.*.*.*.~ I ^ ~ I ..{ x x ,.r.$X>X_.W.N.c [ @.y.y./ ^ ^ ^ ^ ^ ^ ^ ^ *.*.*.W P P I W ",
"H I ! *.*.*.^ ^ ^ ^ ^ I U ^ I U +._ f K.W.U.A.$X:X@X/.Q.P.k 6 @.$.I U ! ^ / *.*.*.^ ^ ^ ^ ^ ~ W I P ",
"I R ! ^ / y.*./ / / ^ W ~ / ! ..7 ;.J.W.!.Q.E.I.).:X`.!.E.k o ; | Q ~ ^ ^ / / / / ^ ^ ^ ^ ! W Q W U ",
"W W W Q ~ y.y.y.*.y.=.^ / y.+.[ ;.w.I.W.!.!.Q.A.A.).(.!.E.k 1 ;.[ } y.*.^ ^ ^ ^ ^ ^ ^ ^ ^ I P W ~ ^ ",
"J J P W ~ =.^ W P ^ y.*.~ I _ < H.I.A.W.!.!.Q.A.C.C.U.!.E.m m K.f 9 y.y.*./ ^ ^ ! P P I Q I I ^ *.i.",
"U U W ^ ^ ~ ~ ~ ~ ^ / ~ W I _ < J.W.W.!.!.!.!.W.U.C.U.Q.W.w.t.P.g 8 *.*.*.^ Q ~ ! I P I ~ W W *.y.y.",
"^ ^ ^ u.*.P ! ^ i./ ~ P I W _ < J.G.z.%X`.!.!.!.W.I.W.!.Q.U.U.P.g 8 ^ ^ ^ U P W W W P U ^ ^ / i.y.^ ",
"I Q ^ W I J P I U I I H I W _ < N.3.) {._.!.!.!.!.Q.!.!.!.!.!.E.g 7 W Q I P H P I Q ~ ~ ^ y.i.i.y.^ ",
"H U ! P H H H H H H H H I Q _ + 6.%.( ) z.!.!.~.~.~.!.!.!.!.!.E.g 7 W ~ I I I I U ! ^ ^ ^ y.i.i.y.^ ",
"H H J H H H H H H H H H U ^ _ < x.d.p.( z.!.~.&X=X=X`.!.!.!.!.E.g 7 ^ i.^ ^ ^ ^ ^ ^ ^ ^ ^ ^ / i.y.^ ",
"H I U ~ ^ ^ ~ ! ! ! W P U o.[ h m.].s.a.G.`.`.>X,XoXB.J.Q.!.!.E.g 7 W ^ ^ / *.*./ ^ ^ ^ ^ ^ ^ ^ ! U ",
"P U ! / *.y./ ^ ^ ^ ^ I U & k 6. X-X<X;X,X1X1X2X@XM 4 C W.!.Q.P.f 8 W ~ ^ / *.*.*.^ ^ ^ ^ ^ ~ Q U P ",
"Q Q Q Q ~ y.y.y.y.y.*.^ ^ X.' l [.-X;Xl..X2X2X2X:XF.F.^.!.Q.N.c [ @.y.*.^ ^ ^ ^ ^ ^ ^ ^ ^ I P W ~ ^ ",
"I I I W ~ =.^ ~ W / y.*.^ W X.t k.m.F.:.^.2X2X2X:X.X.X^.T.U.6.,  .y.y.y.*.^ ^ ^ ~ U U W ! I I ~ / u.",
"P P I ! ^ / ~ W I ^ *.*.! P ~ ..; : h @X1X1X,X,X.X4 1 j 8.9.,.2 ..*.*.*.*.^ ^ ^ ! P H I Q I I ^ =.i.",
"~ ~ ^ y.*.I ! ^ u./ ^ I U W P P S 5 4  X-X XV V M + v n d s y X.^ ^ ^ ^ ^ W I W Q W P I ^ ^ ^ u.y./ ",
"Q ~ ^ / ^ P R ~ / ~ W P I W I P H ` t k.v.l.l k k d n b . $ G Q Q Q ~ ~ Q I J U R Q U W ^ / y.i.y.^ ",
"H W ^ I H H H H H H H H I Q Q U H H K > : k L.E.L.8.d X o K W P H H U W J H H H I Q ^ ^ ^ u.i.i.y.^ ",
"H P P J H H H H H H H H U ^ ^ / y.^ Y O m N.W.!.T.w.d s q.y % U U P ^ u.^ ~ ~ ~ ~ ^ ^ ^ ^ ^ *.i.y.^ ",
"H H H H P I P H H P P H I Q Q ^ y...{ g.B.!.Q.T.Z.Z a k Z.g 6 ! ~ U ^ y.^ ^ ^ ~ ~ ! ! ! ! ! ~ / ^ ! ",
"H H H J I Q I J H U W P H J J I T 0 M ;X&X(.W.V.<.X   a 5.h t $.&.^ ^ ^ ^ ~ Q W U H J J J J J J H H ",
"H H P ^ / *./ ^ H U Q ~ ~ ~ ~ | 5 :.[.,X1X*XA.n @     X a l.j.w | I I I I U W I P H ^ ^ ^ ^ ~ ~ U H ",
"I P P ^ / y./ ^ U ! ~ ^ ^ ^ ^ | - g.+X-X;XoXA b j j @   : v.v.> ] I I F = F W P P I ^ *.y.*./ ^ Q I ",
"^ W J P R *.W U *.*.*.y.y.*.! | 5 f.m.'.'.v.a <.0.9.j + + j.j.> S R E e o O ! P I ^ ^ / y.i.i.^ ^ ^ ",
"^ ^ ~ R W ^ I P Q / y.y.*./ ~ ! U 0 1 1 1 g 5.9.r.r.8.Z X : :   O O 3 q.>.O I U U R ^ ^ / *.*.*.~ U ",
"^ / *.~ Q W I P P ^ *.*./ ^ ^ ^ ~ 9 + b n n b 5.r.r.r.7.n @   . j Z 2.>.-.F I W W P ! ^ ^ ^ ^ *.! H ",
"^ / *.~ W J ! ^ ^ ^ ^ ^ ^ ..@. .D t s 7.r.5.+ n 7.r.C.C.r.j + X Z w.e.e G y.i.~ Q W P I Q I P W I H ",
"y.^ ! ^ ^ W ^ / / ^ ^ ^ ! q - - - x 7.r.r.4.+ + d 8.I.W.E.w.Z X + # 3 X.^ / *.^ Q I I I I I U W I H ",
"i.^ I / *.^ *.=.y./ ^ ..0 f.h.h.h.M.r.r.<.z ] E ' x w.I.W.U.Z.2.1 ; ] ^ ^ ^ ^ ^ ! P W W P R W W I P ",
"I U W ^ ^ ^ ^ / y.=.*.] 2 n.OX|.OXD.r.r.b ; @.W K 6 C w.W.!.W.Y.B [ @.^ ^ ^ ^ ^ ^ ~ / *./ U P P I W ",
"H I ! ^ ^ ^ ^ ^ *.*./ ] 2 n.}.+X+XD.V.9.l 6 +.Q U Y r B W.!./.XX}.h.$ E ^ ^ / / ^ ^ *.*.*.W I I I U ",
"H I ! *.y.y.^ ^ ^ ^ ~ K ` u k.|.OX XS.l [  .H ^ $.r f.b.oXoXoX+X|.j.O Y ^ / y.y.*.^ ^ ^ ^ ^ ^ Q I H ",
"R W Q ~ ^ y.*.*.*.*.*.~ ~ r i v.v.v.k.w ] ^ ~ / O., c.OX+X+X+XOXn.f.q @.^ ^ ^ ^ ^ ^ ^ ^ ^ U I W ~ ~ ",
"U U R W ~ y.*./ ^ *.*./ ^ ~ { , , , 2 ..^ ^ ^ / O.2 k.}.}.}.}.[.i 0 &.y.^ ^ ^ ^ ^ ! ! ~ ~ I P ! ^ *.",
"J J P W ~ *.~ W P ^ y.*.~ P ! L L L E ^ ^ ^ ^ ^ ! K u N N N N i { $.y.y.y./ ^ ^ ! J H I Q I I ^ =.i.",
"~ ~ ~ *.*.U ~ ^ *./ ^ W U R I I I Q Q I ^ *.*.*.*.^ ] * * * * r o.^ ^ ^ ^ Q I Q Q R P I ^ ~ ^ u.y.*.",
"~ ^ ^ =./ P W ^ y.^ ! P I W I P J U U H ~ *./ *.*./ / ^ ~ ~ ^ ~ ~ ~ ^ ^ ~ U P U W Q I U ^ ^ *.i.y.^ ",
"P W ^ I P H P P I P P H I Q W I J P P H R Q P W Q I ~ i.U I Q I P P U Q P P H P I Q ~ ^ ^ u.i.i.y.^ ",
"H I R P H H H H H H H H U ~ ~ ~ ^ Q W W ^ ^ W U I I W ^ W U I I I J ! / W W W W Q ~ ^ ^ ^ *.y.i.y.^ ",
"H H H H H H H H H H H H U ^ ^ *.i./ ^ ^ u.i.^ U P W U H ~ ! H W W P ^ i.^ ^ ^ ^ ^ ^ ^ ^ ^ ^ / i.y.^ "
};
