/* XPM */
static char *_56c07c061df4a31a52919b54d4b128dSnF54oycnoUlgECY[] = {
/* columns rows colors chars-per-pixel */
"50 50 202 2 ",
"   c #693A37",
".  c #5F4F3D",
"X  c #654339",
"o  c #6A4538",
"O  c #75453D",
"+  c #79463F",
"@  c #744A3F",
"#  c #7B483F",
"$  c #665539",
"%  c #64543B",
"&  c #6A533B",
"*  c #66673C",
"=  c #67783E",
"-  c #5C5842",
";  c #575A48",
":  c #6F4E49",
">  c #724743",
",  c #744C40",
"<  c #7C4B42",
"1  c #6D5D43",
"2  c #6C564A",
"3  c #775445",
"4  c #74524B",
"5  c #7A5451",
"6  c #586C47",
"7  c #567647",
"8  c #5B7446",
"9  c #6A6947",
"0  c #7A664C",
"q  c #667441",
"w  c #667943",
"e  c #6D6F5E",
"r  c #7C7852",
"t  c #7F6462",
"y  c #74796A",
"u  c #8B5548",
"i  c #845B49",
"p  c #8C594A",
"a  c #915B4D",
"s  c #8A664F",
"d  c #9A6753",
"f  c #936A51",
"g  c #967759",
"h  c #A26B55",
"j  c #A86E59",
"k  c #AE745D",
"l  c #A2785C",
"z  c #A97D5E",
"x  c #876D6B",
"c  c #8E716D",
"v  c #897875",
"b  c #8E7D7D",
"n  c #947B71",
"m  c #A27463",
"M  c #B47D62",
"N  c #5C883E",
"B  c #5F973D",
"V  c #638539",
"C  c #698A3C",
"Z  c #679E32",
"A  c #689F32",
"S  c #63923C",
"D  c #6D943E",
"F  c #629C3A",
"G  c #689F38",
"H  c #6BA334",
"J  c #6FA936",
"K  c #65A33C",
"L  c #68A339",
"P  c #6DAA3C",
"I  c #71AD37",
"U  c #74A53E",
"Y  c #72AF38",
"T  c #75B339",
"R  c #75B43A",
"E  c #78B73B",
"W  c #7BBC3C",
"Q  c #7FC13D",
"!  c #5B8449",
"~  c #538C4F",
"^  c #5B884D",
"/  c #5D974A",
"(  c #5B8053",
")  c #528C50",
"_  c #559152",
"`  c #589553",
"'  c #668444",
"]  c #67874C",
"[  c #699544",
"{  c #659B4B",
"}  c #698653",
"|  c #748958",
" . c #65A247",
".. c #6CA144",
"X. c #6CAD41",
"o. c #73A240",
"O. c #73AD44",
"+. c #74A848",
"@. c #6FB142",
"#. c #71B443",
"$. c #7CB541",
"%. c #78BA43",
"&. c #6E8368",
"*. c #7FC342",
"=. c #81C53F",
"-. c #83C83F",
";. c #96815C",
":. c #9D8561",
">. c #848278",
",. c #AC8462",
"<. c #AA8B65",
"1. c #B88667",
"2. c #BD986E",
"3. c #B99674",
"4. c #C18668",
"5. c #C48A6B",
"6. c #CB8E6E",
"7. c #CA926F",
"8. c #C1996F",
"9. c #CE8F70",
"0. c #CE9170",
"q. c #C29E72",
"w. c #C99278",
"e. c #D29472",
"r. c #DA9B77",
"t. c #DC9E79",
"y. c #CAA877",
"u. c #CDAC79",
"i. c #D8A479",
"p. c #D3AD7B",
"a. c #D7B27F",
"s. c #E4A37C",
"d. c #E7A97F",
"f. c #82C640",
"g. c #84C940",
"h. c #88CF42",
"j. c #8BD343",
"k. c #9C8D89",
"l. c #9F9D9D",
"z. c #A19E9F",
"x. c #ADABAB",
"c. c #AEB3B4",
"v. c #B0B6B9",
"b. c #B4B7B9",
"n. c #CD9F86",
"m. c #D6B981",
"M. c #DAB982",
"N. c #DBB982",
"B. c #DBAF94",
"V. c #D7B09C",
"C. c #E5AC80",
"Z. c #E8AD81",
"A. c #E0A989",
"S. c #E4B482",
"D. c #E9B282",
"F. c #E1BD84",
"G. c #ECBB87",
"H. c #EEBD88",
"J. c #F0BF89",
"K. c #EDBD97",
"L. c #C0BCBD",
"P. c #E2C287",
"I. c #E5C78B",
"U. c #EBC389",
"Y. c #E6C88A",
"T. c #ECCC8D",
"R. c #F1C48B",
"E. c #F3CB8E",
"W. c #EFD08F",
"Q. c #E7C99E",
"!. c #F5CF90",
"~. c #F6D392",
"^. c #F3D593",
"/. c #F8D694",
"(. c #F7D995",
"). c #F9DA95",
"_. c #FADB96",
"`. c #FBDD97",
"'. c #FCDE98",
"]. c #FCDF98",
"[. c #CAC2BE",
"{. c #D3C6B8",
"}. c #D8D4B7",
"|. c #F3DCA0",
" X c #EDD4B5",
".X c #FBE8BF",
"XX c #B6BEC1",
"oX c #BDCBCD",
"OX c #BECFD2",
"+X c #C6C9C7",
"@X c #DACFCE",
"#X c #C5D0CF",
"$X c #C2D3D4",
"%X c #C2D5D9",
"&X c #C7D8DB",
"*X c #CCDCDE",
"=X c #DFDAD9",
"-X c #F7E6C2",
";X c #D5DFE0",
":X c #D7E3E5",
">X c #EAEAE4",
",X c #F5F6F3",
/* pixels */
"Z Z Z Z H Y H Z Z J Y H Z Z Z H T W W W J Z Z J Y H J W W Q g.g.=.W W W W E T T J Z Z Z Z Z Z Z Z Z ",
"Z Z H Y E W E Y Z J Y Y Y Y Y J H Y Y Y E E H H J I T W Q Q Q Q W Y Y Y Y Y Y J H Z Y T T Y Y Y H Z ",
"H A H W =.f.=.W H Y E W W W W Y Z H H H Q h.Y H H W W W =.=.W W E H H H H J Y H A H W =.f.Q W W Y H ",
"E J A H Y =.T I Q =.=.=.=.=.T J H T E E W W H J T Q =.=.E W =.I H Y T E E E E H H E W Q g.h.h.W W E ",
"W T J H I Q J H W =.g.g.=.=.E Y H T E W W W H Y E =.=.=.W W =.H H J T E E E T H H E W W =.h.h.Q W E ",
"W Q =.E T T H A H W g.g.Q W W W W H H W W W W W W W W W =.f.=.J Z Z A A H H H Y J H E W W W W =.T Z ",
"W Q =.E Y H Y T T W W W W W h.W L P T T W =.=.W W W W W W W W T Y T T T T W =.T Y J J J T J J E J Z ",
"Q Q W E T H E W W W W W W W h. .7 7 / T W =.=.Q W W W W W %.! 8 ^ #.W W W =.h.E T I H H I H H Y H Z ",
"j.W H Q =.W =.g.g.Q W W W W O.} i i } U U E W =.g.g.f.$.$.+.0 i 0 ..E W W W W W T Z I J A I T T H Z ",
"Y Y Y W W W W Q g.=.=.=.E K 6 :.I.Y.<.& % { Q T J J P 9 & 0 m.Y.u.1 / W W W W W W T W W W J H H H J ",
"Z H T W W W W W =.=.=.=.E F ; ,.(.`.F.8.M r w 8 6 6 q l 1.y.^.].N., ) W W W W W W W =.=.=.Y H H H Y ",
"Z H T =.=.=.W W W W W H Y X.; ,.).].].^.D.1.f f f f g i.R.`.].].N., ~ T W Q f.f.=.W W W W W E Y H H ",
"H I T W Q g.=.Q Q Q W Y E #.; ,.).].].].).(.^.^.^.^.^.).`.].].].N., ) W W Q Q Q Q W W W W T Y T Y J ",
"Y Y Y T E f.f.f.=.f.=.W Q %.; ,.(.].].].].].].].].].].].].].].].N., _ f.W W W W W W W W W H H Y E W ",
"A A H Y E -.E Y H W g.=.E F ; z E.).].].].].].].].].].].].].].~.p.@ _ f.=.Q W W T H H H T H H W =.j.",
"J J Y W W E E E E W Q E Y F ; h D./.].].].].].].].].].].].].`.J.7.O _ Q =.W T E T H H H E Y Y =.g.g.",
"W W W h.=.H T W j.Q E H H K ; z ~.`.].].].].].].].].].].].].].).a.@ ) W W J H Y Y Y H J W W Q j.f.W ",
"H T W Y H A H H J J H Z H K ; ,.).].].].].].].].].].].].].].].].N., ) T H H Z H H T E E W g.j.j.f.W ",
"Z J T H Z Z Z Z Z Z Z Z H X.; ,.).].].].].].].].].].].].].].].].N., ) E H H H H J T W W W g.j.j.f.W ",
"Z Z A Z Z Z Z Z Z Z Z Z J @.; ,.).].].].].].].].].].].].].].].].N., ` j.W W W W W W W W W W Q j.f.W ",
"Z H J E W W E T T T Y H J #.; ,.).].].].].].].].].].].].].].].].N., ~ W W Q =.=.Q W W W W W W W T J ",
"H J T Q =.g.Q W W W W H J ..- z E.`.].].].].].].].].].].].].]./.p.@ 7 U W Q =.=.=.W W W W W E T J H ",
"T T T T E f.g.g.g.g.=.W ...   h d.~.`.].].].].].].].].].].].).H.6.O X w W W W W W W W W W H H Y E W ",
"H H H Y E -.W E Y Q f.=.R C % h s.D.E.].].].].].].].].].].).G.Z.6.O C $.=.W W W E J J Y T H H E Q h.",
"H H H T W Q E Y H W =.=.Y N % p 4.t.G.E.E.).].].].].`.~.E.R.d.6.k o ' O.f.W W W T H Z H T H H W -.j.",
"E E W g.=.H T W h.Q W H S % X o 3 6.t.s.d.E.).).).)./.D.s.t.r.d o o o = W Y H Y T Y H H W W W h.f.Q ",
"T E W Q W H I E Q E Y H L  .G Z S 0 u d r.Z.D.D.D.D.Z.s.1.p i ] J J P T T H A J I T J Y W Q f.j.f.W ",
"Z I W H Z Z Z Z Z Z Z Z H T Y L ' ;.l h k k k k k k k k j d l | S Z J Y A Z Z Z H T W W W h.j.j.f.W ",
"Z A H A Z Z Z Z Z Z Z Z J W T ] s P.U.e.p < # # # # < < k C.E.<.9 S E h.W E E E E W W W W W =.j.f.W ",
"Z Z Z Z H H H Z Z H H Z H P 8 :.P.(.).~.P.i.e.0.0.0.e.N.T./.).T.y.1  .g.W W W E E T T T T T E Q W T ",
"Z Z Z A H Y H A Z J Y H A F ; ,.).].~.E.).E.J.J.J.J.R.).~.E.).].N., / W W E T Y J Z A A A A A A Z Z ",
"Z Z H W Q =.Q W Z J T E T  .e 3.).^.S.i./.`.`.`.`.`.`.].G.t.E.).N.s ^ G H J Y H H Z E W W W E E J Z ",
"H H H W Q f.Q W J T E W U 2 [.-X(.C.k f W.].].].].].].].q.p r.E.(.I.g * H Y T H H H W =.g.=.Q W T H ",
"W Y A H I =.Y J =.=.=.f.o.4 @X>X{.m < i T.].].].].].].].2.< e.R.|.}.c * E W W H H W W W g.j.j.W W W ",
"W W E I Y W H H Y Q g.g.U 4 +X:XXX5   i T.].].].].].].].2.< n.Q. X#Xv * H J J J J I E W Q =.=.=.E J ",
"W Q =.E T Y H H H W =.=.U 2 c.$Xv.4   p T.].].`.].`.`.].2.5 b.#X$XOXv * A H H Y J H T W W W W =.T Z ",
"W Q =.E Y A T W W W W W E { y x t o a 7.^.]./.G.~.!.G./.S.1.c x.$XOXv * W -.j.E T Y H H T H H Y H Z ",
"g.W T W W Y W Q Q W W W W W [ C q X k H.).].U.5.U.F.4.G.G.e.< v z.l.&.[ W Q =.W T H H H H H J Y H Z ",
"h.W H Q =.W =.-.g.Q W W W W W W O.1 1.).].).a.< p.q.+ 9.s.e.O X & & [ W W W W W T H Y Y H I Y Y H H ",
"H J Y W W W W Q g.=.=.=.E H Q { 9 1.S.].`.R.0.O u.q.O 6.s.e., ' $.$.W W W W W W W E Q =.Q J H H H Y ",
"Z H T W W W W W =.=.=.W T H E ! 4 V. X-X.XK.5.O u.q.O 6.s.t.n | O.W W W W W Q Q W W =.=.=.Y H H H J ",
"Z H T =.g.g.W W W W W H Y W F ( x =X,X,X,X Xw.+ y.8.O w.A.B.+Xv - F J T W Q g.g.=.W W W W W W T H Z ",
"I Y T E W f.=.=.=.=.=.E W %.6 k.=X*X*X*X*X>X{.< 4.M > x.+X+XoXv - #.Q Q W W W W W W W W W J H Y T E ",
"J J I Y E f.=.Q W =.=.Q W #.; k.;X&X%X%X%X:XL.> p u   x b b b &.{ *.g.f.W W W W W T T E E H H T W =.",
"A A H Y E =.E Y H W f.=.E F 6 >.c.v.v.v.v.v.l.1 % % % % % % % { f.f.g.g.f.Q W W T A Z H T H H W -.j.",
"E E E =.=.J E W =.Q W Y J J G ( : : : : : : 9 $.W E E E R R E W W W W W W T H T T I H H W E W h.f.=.",
"E W W -.Q H Y W g.W T H H Y H B V V V V D D o.Q =.Q Q Q W E W E E E W W E J H J Y T H J W W =.j.f.W ",
"H Y W H H Z H H H H H Z H T Y H Z A A Z J Y H Y T H E j.J H T H H H J T H H Z H H T E W W h.j.j.f.W ",
"Z H I H Z Z Z Z Z Z Z Z J E E E W T Y Y W W Y J H H Y W Y J H H H A T Q Y Y Y Y T E W W W =.g.j.f.W ",
"Z Z Z Z Z Z Z Z Z Z Z Z J W W =.j.Q W W h.j.W J H Y J Z E T Z Y Y H W j.W W W W W W W W W W Q j.f.W "
};
