/* XPM */
static char *_39bb03026a3481d89e99a7f21be36172rKN1DwtXLHM7O4n[] = {
/* columns rows colors chars-per-pixel */
"50 50 216 2 ",
"   c #663935",
".  c #6C3E3B",
"X  c #5D4B3D",
"o  c #5D563E",
"O  c #62433C",
"+  c #6C423D",
"@  c #634B3C",
"#  c #6A483F",
"$  c #75443D",
"%  c #65533B",
"&  c #63593D",
"*  c #5C7A3E",
"=  c #64693E",
"-  c #687C3D",
";  c #5F4F42",
":  c #5C5244",
">  c #6D4743",
",  c #6D4A44",
"<  c #784C42",
"1  c #605041",
"2  c #73524F",
"3  c #7C5749",
"4  c #6D5D54",
"5  c #785655",
"6  c #7D5A56",
"7  c #596945",
"8  c #5E6F44",
"9  c #5B7647",
"0  c #52734F",
"q  c #53754C",
"w  c #537A4E",
"e  c #5A7957",
"r  c #626A43",
"t  c #7B664E",
"y  c #657847",
"u  c #70675D",
"i  c #727252",
"p  c #687D61",
"a  c #814D43",
"s  c #835648",
"d  c #8A5C4B",
"f  c #8B5D53",
"g  c #835C5A",
"h  c #986A56",
"j  c #877354",
"k  c #A8775C",
"l  c #876764",
"z  c #866E6D",
"x  c #8D7371",
"c  c #8B7777",
"v  c #8D7A7A",
"b  c #AF7C61",
"n  c #B37A63",
"m  c #5C943E",
"M  c #679E32",
"N  c #689F32",
"B  c #679938",
"V  c #6AA334",
"C  c #6EA936",
"Z  c #6DA63A",
"A  c #71AD37",
"S  c #72AF38",
"D  c #75B339",
"F  c #75B43B",
"G  c #78B73B",
"H  c #7BBC3C",
"J  c #7EC13D",
"K  c #16866A",
"L  c #128E75",
"P  c #13927B",
"I  c #268B6D",
"U  c #349476",
"Y  c #5C8E41",
"T  c #598749",
"R  c #5D9345",
"E  c #5B974B",
"W  c #5C9854",
"Q  c #678A49",
"!  c #659646",
"~  c #619B46",
"^  c #70934B",
"/  c #68A747",
"(  c #65A349",
")  c #6DB244",
"_  c #75B441",
"`  c #7BBB41",
"'  c #79B842",
"]  c #6AA853",
"[  c #5A9675",
"{  c #6A8367",
"}  c #728464",
"|  c #7F8975",
" . c #6CA77A",
".. c #7AC144",
"X. c #81C53F",
"o. c #83C83F",
"O. c #81855E",
"+. c #99805E",
"@. c #BB8767",
"#. c #AE926C",
"$. c #BD976D",
"%. c #B78A77",
"&. c #C78A6C",
"*. c #C5916E",
"=. c #C69870",
"-. c #D79A75",
";. c #C5A274",
":. c #CBA678",
">. c #DDA57D",
",. c #CEB27F",
"<. c #D8B37E",
"1. c #E6A47E",
"2. c #E0AD7E",
"3. c #81C541",
"4. c #84C940",
"5. c #88CF42",
"6. c #8BD343",
"7. c #169D87",
"8. c #289982",
"9. c #19A997",
"0. c #2CAB96",
"q. c #2EB5A6",
"w. c #30B9AC",
"e. c #409A82",
"r. c #58A48B",
"t. c #64B893",
"y. c #41B8A9",
"u. c #67C5AB",
"i. c #74CDC2",
"p. c #968585",
"a. c #92928D",
"s. c #9B9393",
"d. c #999997",
"f. c #A58987",
"g. c #B3998F",
"h. c #A79796",
"j. c #89B693",
"k. c #B5A49F",
"l. c #ABA6A7",
"z. c #B6AAA9",
"x. c #BCB0AC",
"c. c #ABAFB1",
"v. c #AEB3B5",
"b. c #B2B7B8",
"n. c #C29C87",
"m. c #CAAE8A",
"M. c #DAAB8C",
"N. c #DDB597",
"B. c #E4AF82",
"V. c #E9AC82",
"C. c #EBB485",
"Z. c #EEBD89",
"A. c #C2AFAE",
"S. c #D1B7AB",
"D. c #C7B6B4",
"F. c #C9BAB6",
"G. c #BAC48A",
"H. c #B0C79F",
"J. c #CECC8E",
"K. c #C7C994",
"L. c #E8C78B",
"P. c #F2C58C",
"I. c #F5CC8F",
"U. c #EFD08F",
"Y. c #E9C696",
"T. c #F5CD91",
"R. c #F2CD9F",
"E. c #EFD795",
"W. c #F5D492",
"Q. c #F6D897",
"!. c #FADC96",
"~. c #FCDF98",
"^. c #FCE09D",
"/. c #D0CAAF",
"(. c #D9D7BE",
"). c #EAD9A9",
"_. c #F6DEA7",
"`. c #EDC8B2",
"'. c #FBE1A4",
"]. c #FBE3AB",
"[. c #F9E7B8",
"{. c #B7BFC1",
"}. c #BBC6C8",
"|. c #B7D7CC",
" X c #BECDD0",
".X c #BDE0D9",
"XX c #BFE8E4",
"oX c #C5C7C6",
"OX c #D7CAC7",
"+X c #D4DBCA",
"@X c #C8CFD1",
"#X c #C5D4D7",
"$X c #CCD9D7",
"%X c #C4D5D9",
"&X c #CCDBDE",
"*X c #D9D8D7",
"=X c #E6DBC1",
"-X c #E5DAD6",
";X c #DAE2DB",
":X c #FAEBC7",
">X c #E7E5DE",
",X c #F1ECD1",
"<X c #FBF2DA",
"1X c #CEDCE0",
"2X c #C4E9E4",
"3X c #DBE3E5",
"4X c #EBE6E5",
"5X c #E4E9E9",
"6X c #EBE9E9",
"7X c #F5EDE8",
"8X c #F8F5EC",
"9X c #E7EEF0",
"0X c #EDF2F2",
"qX c #F4F5F4",
"wX c #F6F8F7",
"eX c #FDFDFD",
/* pixels */
"M M M M V S V M M C S V M M M V D H H H C M M C S V C H H J 4.4.X.H H H H G D D C M M M M M M M M M ",
"M M V S G H G S M C S S S S S C V S S S G G V V C A D H J J J J H S S S S S S C V M S D D S S S V M ",
"V N V H X.4.X.H V S G H H H H S M V V V J 4.S V V H H H X.X.H H G V V V V C S V N V H X.4.J H H S V ",
"G C N V S X.D A J X.X.X.X.X.D C V D G G H H V C D J X.X.G H X.A V S D G G G G V V G H J 4.5.4.H H G ",
"H D C V A J C V H X.4.4.X.X.G S V D G H H H V S G X.X.X.H H X.V V C D G G G D V V G H H X.4.4.J H G ",
"H J X.G D D V N V H 4.4.X.H H H G V V H H H H H H H H H X.4.X.V M M M N V V V S C V G H H H H X.D M ",
"H J X.G S V S D D H H H H H 4.H E q q / H X.X.H H H H H H H ' T q w / D D H X.D S C C C D C C G C M ",
"J J H G D V G H H H H H H H 3.( e 6 3 Q ( ) ..J H H H H ) / ~ t 3 u W ) H X.4.G D A V V A V V S V M ",
"6.H V J X.H X.4.4.J H H H H ( : d./.L.j @ 1 E ' 3.3.3...r @ 3 ,./.b.4 T H H H H D M A C N A D D V M ",
"S S S H H H H J 4.X.X.X.G C ( O z.>X(.m.$.b i 8 8 8 8 y k @.;./.;X*X6 w H H H H H D H H H C V V V C ",
"M V D H H H H H X.X.X.X.G V ( O D.0X;X(.R.B.k d d d d f -.Y.).*X5X4Xg q H H H H H H X.X.X.S V V V S ",
"M V D X.X.X.H H H H H V S G R O D.wXwX;X(.Q.W.U.U.U.U.U.Q.).$X0XwX4Xg q H J X.X.X.H H H H H G S V V ",
"V A D H J 4.X.J J J H S G J ~ O D.qX3X=X).~.~.~.~.~.~.~.^._.).;X9X4Xg q H J J J J H H H H D S D S C ",
"S S S D G 4.4.4.X.4.X.H J 3./ O D.0X+X).!.T.T.W.~.~.!.T.T.W.~.(.>X4Xg w H H H H H H H H H V V S G H ",
"N N V S G o.G S V H 4.X.G V ~ O D.<X'.~.T.V.V.Z.~.~.T.V.V.Z.~.~.:X>Xg w 3.J H H D V V V D V V H X.6.",
"C C S H H G G G G H J G S V R O m.].~.~.!.T.I.W.~.~.!.I.I.W.~.~.'.).s w J H D G D V V V G S S X.4.4.",
"H H H 4.X.V D H 6.J G V V S Y O ;.~.^.].).G.G.J.~.~.'.].K.G.G.E.~.L.s q H C V S S S V C H H J 6.4.H ",
"V D H S V N V V C V V M V S R O ;.!.^.,X|.U I  .E.~.[.>Xr.I U J.~.L.s q V V M V V D G G H 4.6.6.4.H ",
"M C D V M M M M M M M M V D ~ O @.Z.E.j.e.K 7.t.E.~.K.r.I L 0.K.I.>.< q V V V V C D H H H 4.6.6.4.H ",
"M M N M M M M M M M M M C H ~ O %.N.L.[ K P 9.u.[.[.H.K L 7.q.K.Y.m.< w H H H H H H H H H H J 6.4.H ",
"M V C G H H G D D D S V C F R O s.F.M.[ 8.q.w.i.0XwX|.U 0.w.y.m.S.v.2 q _ H X.X.J H H H H H H H D C ",
"V C D J X.4.J H H H H V S Q o   2 f.-X$X.XXXXX+X`.7X0X.XXXXX2X>XA.l . X 8 ' X.X.X.H H H H H G D C V ",
"D D D D G 4.4.4.4.4.X.H J ! r   5 h.wXeXeXwX*XS.`.7X6XOX7XeXeXeXoXl + % - F H H H H H H H V V S G H ",
"V V V S G o.H G S J 4.X.H A / O s.@XwXeXeXqXf.f.>X7XF.l *XeXeXwX3Xv.2 Q H H H H G C C S D V V G J 4.",
"V V V D H J G S V H X.X.D * o   2 p.$X0XeXwX-XA.x l f.OXqXeXwX3Xl.6 . X y F G H D V M V D V V H o.6.",
"G G H 4.X.V D H 4.J H V C T 0 7 8 p s.z.oX5XwX-Xf.f.A.wX0X*Xx.h.| y 9 q T Z V S D S V V H H H 5.4.J ",
"D G H J H V A G J G S N V S V V M ! , $ z {.;X6X4X4X4X4X@Xs.$ $ y Z G G D C V C A D C S H J 4.6.4.H ",
"M A H V M M M M M M M M V D D C * j <.-.n 6 g g g g g g 6 h *.<.#.r Z S N M M M V D H H H 5.6.6.4.H ",
"M N V N M M M M M M M M C H F ! O.$.W.P.M.f.v c c c c c p.n.Z.W.B.+.^ _ G G G G G H H H H H X.6.4.H ",
"M M M M V V V M M V V M V D ~ @ ;.Q.~.Q._.7X*X#X#X#X#X$X6X:XQ.~.~.L.3 T H H H G G D D D D D G J H D ",
"M M M N V S V N M C S V N M m @ ;.~.!.C.Z.].<XwXwXwXwXqX[.T.V.W.~.L.s w G G D S C M N N N N N N M M ",
"M M V H J X.J H M C D G G ! { h.Y.Q.Z.@.*.Q.[.<XeXeX8X:X'.<.n 2.I.W.$.O.T Z S V V M G H H H G G C M ",
"V V V H J 4.J H C D G H H = l 6X:XY.*.s h W.~.[.8X8X<X^.~.=.$ &.Z.'._.#.% V D V V V H X.4.X.J H D V ",
"H S N V A X.S C X.X.X.4.3.r l 7X;Xz.3   h W.~.^.].].'.~.~.=.$ &.`.8X8Xg.% S G V V H H H 4.6.6.H H H ",
"H H G A S H V V S J 4.4.X.= l *X1Xl..   h W.~.~.~.~.~.~.~.=.> g.OX5X5Xh.% B C C C A G H J X.X.X.G C ",
"H J X.G D S V V N H X.X.J y u v.b.s.. $ k W.~.~.~.~.~.~.~.:.s l.}.%X%Xp.@ B V S A N D H H H H X.D M ",
"H J X.G S N D H H H H H H _ ] 4 2 , . n 2.!.~.~.~.~.~.~.~.Z.&.f p. X Xp.% ' 6.G D S V V D V V S V M ",
"4.H D H H S H J J H H H H H ' T T 9 + &.C.!.~.W.Z.Z.P.!.P.C.-.a 2 c v { E H X.H D V V V V V C S V M ",
"5.H V J X.H X.o.4.J H H H H H J X.( # &.Z.!.~.L.-.*.>.T.V.1.-.a O % % ! H H H H D V S S V A S S V V ",
"V C S H H H H J 4.X.X.X.G V X.H V ~ , :.!.~.~.:.< $ h 1.1.1.-.a r ' G H H H H H H G J X.J C V V V S ",
"M V D H H H H H X.X.X.H D V H D Y } k.=X:X:XR.*..   d -.1.1.>.f.| Q ) H H H J J H H X.X.X.S V V V C ",
"M V D X.4.4.H H H H H V S H M B p f.6XqXqX0X`.%..   f M.M.M.N.oXs.; E D H J 4.4.X.H H H H H H D V M ",
"A S D G H 4.X.X.X.X.X.G H X.( ; x.5X&X%X%X&X6XD.+   z }.oXoXoX Xs.: ) J H H H H H H H H H C V S D G ",
"C C A S G 4.X.H H X.X.J H H ( O l.&X%X%X%X%X&Xz.# - Q z z z z z } / ..4.H H H H H D D G G V V D H X.",
"N N V S G X.G S V H 4.X.G V / 7 a.c.c.c.c.c.c.a.r B B = & o & & Q 3.4.4.4.J H H D N M V D V V H o.6.",
"G G G X.X.C G H X.J H S C A V B 0 , > > > , , y ' H H F F F _ _ H H J J H D V D D A V V H G H 4.4.X.",
"G H H o.J V S H 4.H D V V S V V m Y Y Y R ! ! _ X.J J J H G H G G G H H G C V C S D V C H H X.6.4.H ",
"V S H V V M V V V V V M V D S V M N M M C S V A S V G 6.C V D V V V C D V V M V V D G H H 4.6.6.4.H ",
"M V A V M M M M M M M M C G G G H D S S H H S C V V S H S C V V V N D H S S S S D G H H H X.4.6.4.H ",
"M M M M M M M M M M M M C H H X.6.J H H 4.6.H C V S C M G D M S S V H 6.H H H H H H H H H H J 6.4.H "
};
