/* XPM */
static char *b0d0b7563e46457ac7747bc595b1ba46qWbe4bQ31C5QJIGU[] = {
/* columns rows colors chars-per-pixel */
"50 50 108 2 ",
"   c #944713",
".  c #974A15",
"X  c #9A4D17",
"o  c #9F511A",
"O  c #A3561D",
"+  c #A5591E",
"@  c #A75B20",
"#  c #AA5D21",
"$  c #AE6224",
"%  c #B26426",
"&  c #B46728",
"*  c #B56A29",
"=  c #BA6D2C",
"-  c #B4702A",
";  c #BC712E",
":  c #C27631",
">  c #C67B35",
",  c #C97E36",
"<  c #C97D38",
"1  c #679E32",
"2  c #689F32",
"3  c #6BA334",
"4  c #6EA936",
"5  c #6DA038",
"6  c #71AD37",
"7  c #78A937",
"8  c #72AF38",
"9  c #73B037",
"0  c #75B339",
"q  c #78B63A",
"w  c #7BBC3C",
"e  c #7FC13D",
"r  c #8E9F38",
"t  c #A58F37",
"y  c #B58233",
"u  c #B18A35",
"i  c #BB8A37",
"p  c #AE9237",
"a  c #AD9639",
"s  c #B09338",
"d  c #BE923B",
"f  c #B39D3D",
"g  c #B89F3F",
"h  c #87A538",
"j  c #82AF3A",
"k  c #98A33B",
"l  c #86B63C",
"z  c #8AB53D",
"x  c #83BD3D",
"c  c #8ABB3E",
"v  c #9AB33F",
"b  c #91BB3F",
"n  c #A4A43C",
"m  c #AEA23D",
"M  c #B2A33E",
"N  c #A5B03F",
"B  c #C78339",
"V  c #CD8239",
"C  c #C38C3B",
"Z  c #CA903E",
"A  c #81C53F",
"S  c #83C83F",
"D  c #82AF43",
"F  c #86A84F",
"G  c #95AA4F",
"H  c #83B543",
"J  c #83BE43",
"K  c #88BC46",
"L  c #92BC40",
"P  c #90BD4C",
"I  c #92A65C",
"U  c #93A85D",
"Y  c #97B85C",
"T  c #B6B34D",
"R  c #A5B56A",
"E  c #AAB76F",
"W  c #C9B35A",
"Q  c #CFB063",
"!  c #83C441",
"~  c #84C940",
"^  c #89CE42",
"/  c #8DC048",
"(  c #92C24D",
")  c #8BD343",
"_  c #A6C85B",
"`  c #B1C763",
"'  c #BFC261",
"]  c #B4CB65",
"[  c #B7C66C",
"{  c #B9CB68",
"}  c #BDCE6B",
"|  c #BECE6C",
" . c #C8C77B",
".. c #C8C77C",
"X. c #C1AD8B",
"o. c #C8B191",
"O. c #D1B397",
"+. c #E1A285",
"@. c #E6A386",
"#. c #E8A189",
"$. c #E1B1AB",
"%. c #E3B1AE",
"&. c #EBAFB5",
"*. c #F2AFBD",
"=. c #EEB2B6",
"-. c #EFB0BB",
";. c #F2B0BE",
":. c #CDC485",
/* pixels */
"1 1 1 1 3 8 3 1 1 4 8 3 1 1 1 3 9 w w w 4 1 1 4 8 3 4 w w e ~ ~ A w w w w q 8 9 4 1 1 1 1 1 1 1 1 1 ",
"1 1 3 8 q w q 8 1 4 8 8 8 8 8 4 3 8 8 8 q q 3 3 4 6 0 w e e e e w 8 8 8 8 8 8 4 3 1 8 0 0 8 8 8 3 1 ",
"3 2 3 w A ~ A w 3 8 q w w w w 8 1 3 3 3 e ^ 8 3 3 w w w A A w w q 3 3 3 3 4 8 3 2 3 w A ~ e w w 8 3 ",
"q 4 2 3 8 A 9 6 e A A A A A 0 4 3 0 q q w w 3 4 9 e A A q w A 6 3 8 0 q q w q 3 3 q w e ~ ^ ^ w w q ",
"w 0 4 3 6 e 4 3 w A ~ ~ A A q 8 3 0 q w w w 3 8 q A A A w w A 3 3 4 9 q q q 0 3 3 q w w A ^ ^ e w q ",
"w e A q 9 9 3 2 3 w ~ ~ A w w w w 3 3 w w w w w w w w w A ~ A 4 2 1 2 2 3 3 3 8 4 3 q w w w w A 0 1 ",
"w e A q 8 3 8 0 0 w w w w w ^ w 4 8 0 0 w A A w w w w w w w w q 0 0 0 0 0 w A 0 8 4 4 4 0 4 4 q 4 1 ",
"e e w q 9 3 q w w w w w w w ^ w 4 w w 0 w A A e w w w w w w w w w w w w w A ^ q 9 6 3 3 6 3 3 8 3 1 ",
") w 3 e A w A ~ ~ w w w w w w e ~ ~ A w w w w A ~ ~ ~ ~ ~ ~ ~ ~ A w w w w w w w 0 1 6 4 2 6 9 9 3 1 ",
"8 8 8 w w w w e ~ A A A q 4 e w 8 A ~ A A A A q 6 6 0 w e A ) ~ ~ A w w w w w w w 0 w w w 4 3 3 3 4 ",
"1 3 0 w w w w w A A A A q 3 w q 3 w A ~ ~ ~ e 8 3 3 8 w w A ) ~ A e w w w w w w w w A A A 8 3 3 3 8 ",
"1 3 0 A A A w w w w w 3 8 w 3 6 w w e ~ ) ^ 3 w A A A A ~ ~ ~ ~ e 3 4 0 w e A A A w w w w w q 8 3 3 ",
"3 6 0 w e ~ A e e e w 8 q e 0 q w w w e S A 8 w ~ A w q A ~ ~ w q 0 q w w e e e e w w w w 0 8 9 8 4 ",
"8 8 8 9 q ~ ~ ~ A ~ A w e S ~ A w w w w w w w ~ ~ w 0 5 ! ~ A 4 4 A ~ A w w w w w w w w w 3 3 8 q w ",
"2 2 3 8 q S w 8 3 w ~ A q 3 w w w w w w ( _ _ _ K F X.o.o.R J A A ~ ~ ~ A e w w 0 3 3 3 9 3 3 w A ) ",
"4 4 8 w w q q q q w e q 8 3 8 8 9 q q P ] | | } [ O.-.;.;.%.E ! A A A A A w 9 q 0 3 3 3 q 8 8 A ~ ~ ",
"w w w ^ A 3 0 w ) e q 3 3 8 3 2 2 6 H ` | | | | | :.-.;.;.;.$.Y w w w w w 4 3 8 8 8 3 4 w w e ) ~ w ",
"3 9 w 8 3 2 3 3 4 3 3 1 3 8 8 3 1 3 D { | | | | | ..-.;.;.;.=.U 3 3 8 9 3 3 1 3 3 9 q q w ~ ) ) ~ w ",
"1 4 0 3 1 1 1 1 1 1 1 1 3 0 0 8 4 3 D { } } } } }  .=.*.*.*.&.I 3 1 8 q 3 3 3 3 4 0 w w w ~ ) ) ~ w ",
"1 1 2 1 1 1 1 1 1 1 1 1 4 w w A ) e / ' W W W W W Q @.#.#.#.+.G 6 3 w ) w w w w w w w w w w e ) ~ w ",
"1 3 4 q w w q 0 0 0 8 3 4 w 4 q A w J T B = , : V : V > < = B v w 3 8 w w e A A e w w w w w w w 0 4 ",
"3 4 0 e A ~ e w w w w 3 8 w 3 8 w w w L p O O * # X $ * O @ a c w 3 8 q w e A A A w w w w w q 9 4 3 ",
"9 9 9 9 q ~ ~ ~ ~ ~ A w e ~ ~ A w w w w n $ # $ % o % % $ - N 3 4 A ~ A w w w w w w w w w 3 3 8 q w ",
"3 3 3 8 q S w q 8 e ~ A w 8 w w w w w w l s , O O = o # V a c w w ~ ~ ~ A w w w q 4 4 8 0 3 3 q e ^ ",
"3 3 3 0 w e q 8 3 w A A 0 3 q q w w w q w M = * @ = + & ; n w A A A A A A w w w 0 3 1 3 9 3 3 w S ) ",
"q q w ~ A 3 0 w ^ e w 3 4 8 3 3 3 8 8 3 q M > O & $ % @ , n w w w w w w w 8 3 8 9 8 3 3 w w w ^ ~ e ",
"9 q w e w 3 6 q e q 8 3 3 8 3 3 2 3 3 1 0 M *   O * O . = n q 0 9 9 q q 9 3 3 4 6 9 4 8 w e ~ ) ~ w ",
"1 8 w 3 1 1 1 1 1 1 1 1 3 9 9 4 1 1 1 1 6 k C * $ o % = C r 8 3 1 1 4 8 2 1 1 1 3 9 w w w ^ ) ) ~ w ",
"1 2 3 2 1 1 1 1 1 1 1 1 4 w w e ~ w q q A ^ f ; # X $ : f 7 3 4 4 3 w ^ w q q q q w w w w w A ) ~ w ",
"1 1 1 1 3 3 3 1 1 3 3 1 3 9 0 w A w w w e x a O @ & @ # f q 8 q q 4 w ~ w w w q q 0 0 0 0 0 q e w 0 ",
"1 1 1 2 3 8 3 2 1 4 8 3 2 2 2 3 8 w w w 4 2 t + $ % $ $ m x ~ ~ A w w w w q 9 8 4 1 2 2 2 2 2 2 1 1 ",
"1 1 3 w e A e w 1 4 9 q q q q 8 3 3 3 3 w A h y % * $ u b A w w w 3 3 3 3 4 8 3 3 1 w w w w q q 4 1 ",
"3 3 3 w e ~ e w 4 0 q w w w w 8 2 3 3 3 e ~ 7 d : $ : g A e w q 0 3 3 3 3 8 9 3 3 3 w A ~ A e w 9 3 ",
"w 8 2 3 6 A 8 4 A A A ~ ~ A 0 4 3 q w w w w 2 p & * & m q w A 4 3 8 q w w w w 3 3 w w w ~ ) ) w w w ",
"w w q 6 8 w 3 3 9 e ~ ~ A e q 0 8 6 8 w w w 8 j i * d c w e A 3 3 3 4 4 4 4 4 4 4 6 q w e A A A q 4 ",
"w e A q 9 8 3 3 3 w A A e w w w w 3 3 w w w w w m Z m x A A A 4 3 3 3 3 3 3 3 8 4 3 0 w w w w A 0 1 ",
"w e A q 8 2 0 w w w w w w w ) w 3 q w 0 e ~ ~ e z g l w w w w w w w w w w S ) q 9 8 3 3 9 3 3 8 3 1 ",
"~ w 0 w w 8 w e e w w w w w A e q w e q w e e e x v A e e e e e e w w w w e A w 9 3 3 3 3 3 4 8 3 1 ",
"^ w 3 e A w A S ~ e w w w w w e A ~ A w w w w e A A A A ~ ~ ~ ~ A w w w w w w w 0 3 8 8 3 6 8 8 3 3 ",
"3 4 8 w w w w e ~ A A A q 3 A w 3 e ~ A A A A 9 3 3 8 w w A ) ~ ~ A w w w w w w w q e A e 4 3 3 3 8 ",
"1 3 0 w w w w w A A A w 0 3 w 0 4 w A ~ ~ ~ w 0 6 6 0 w e A ) ~ A w w w w w e e w w A A A 8 3 3 3 4 ",
"1 3 0 A ~ ~ w w w w w 3 8 w 3 6 w w w ~ ) ^ 2 w ~ ~ ~ ~ ~ ~ ~ ~ w 3 4 9 w e ~ ~ A w w w w w w 9 3 1 ",
"6 8 9 q w ~ A A A A A q w A e w w w w w e w q e A e q 3 A ~ S 8 8 w e e w w w w w w w w w 4 3 8 0 q ",
"4 4 6 8 q ~ A w w A A e w q A e w w w w w w w e e q 8 3 w A A 9 0 A ~ ~ w w w w w 0 0 q q 3 3 0 w A ",
"2 2 3 8 q A q 8 3 w ~ A q 3 w w w w w w w w w w w 3 4 w 0 q w A S ~ ~ ~ ~ e w w 0 2 1 3 9 3 3 w S ) ",
"q q q A A 4 q w A e w 8 4 6 3 3 3 9 9 3 w A A A A w w w w w w w w w w w w 9 3 9 9 6 3 3 w q w ^ ~ A ",
"q w w S e 3 8 w ~ w 0 3 3 8 3 3 2 4 4 1 q A e A A e e e w w w q q q w w q 4 3 4 8 9 3 4 w w A ) ~ w ",
"3 8 w 3 3 1 3 3 3 3 3 1 3 9 8 3 2 3 3 1 6 9 3 8 9 3 q ) 4 3 9 3 3 3 4 9 3 3 1 3 3 9 q w w ^ ) ) ~ w ",
"1 3 6 3 1 1 1 1 1 1 1 1 4 q q q w 9 8 8 w w 8 4 3 3 8 w 8 4 3 3 3 2 0 e 8 8 8 8 9 q w w w A ~ ) ~ w ",
"1 1 1 1 1 1 1 1 1 1 1 1 4 w w A ) e w w ^ ) w 4 3 8 4 1 q 0 1 8 8 3 w ) w w w w w w w w w w e ) ~ w "
};
