/* XPM */
static char *_19b3ae05a8944a6a50da34d26909b23FPf59XalYiyXHHQs[] = {
/* columns rows colors chars-per-pixel */
"50 50 115 2 ",
"   c #1B1506",
".  c #231504",
"X  c #261905",
"o  c #2D1D05",
"O  c #2A1F08",
"+  c #321D05",
"@  c #391E04",
"#  c #24240A",
"$  c #262D0F",
"%  c #2A2C0C",
"&  c #372306",
"*  c #3B2505",
"=  c #3D2906",
"-  c #32250A",
";  c #382208",
":  c #35280B",
">  c #3A2F0A",
",  c #24300E",
"<  c #2C310E",
"1  c #32310D",
"2  c #38310B",
"3  c #32390F",
"4  c #383C0F",
"5  c #2B3410",
"6  c #2B3B11",
"7  c #363E11",
"8  c #393E11",
"9  c #492307",
"0  c #402E07",
"q  c #4C2A07",
"w  c #412F09",
"e  c #4D2A0A",
"r  c #5B2F07",
"t  c #532E0C",
"y  c #582F0A",
"u  c #423008",
"i  c #41380D",
"p  c #4D3D0C",
"a  c #553307",
"s  c #5C3406",
"d  c #55310B",
"f  c #5C340B",
"g  c #55390A",
"h  c #5D3908",
"j  c #623506",
"k  c #633B07",
"l  c #6E3D07",
"z  c #61370B",
"x  c #64390A",
"c  c #6B3D0A",
"v  c #703F0A",
"b  c #334314",
"n  c #394312",
"m  c #385119",
"M  c #3B581C",
"N  c #4D430F",
"B  c #55410D",
"V  c #404011",
"C  c #4B4410",
"Z  c #415B1C",
"A  c #495A1A",
"S  c #65410A",
"D  c #6E420A",
"F  c #764207",
"G  c #7C4607",
"H  c #7F4807",
"J  c #74440A",
"K  c #7A4609",
"L  c #7D4A0A",
"P  c #47651E",
"I  c #466C22",
"U  c #4B6C21",
"Y  c #4A7023",
"T  c #537524",
"R  c #557A26",
"E  c #597E27",
"W  c #557E28",
"Q  c #824D0A",
"!  c #86510B",
"~  c #89520B",
"^  c #558329",
"/  c #59842A",
"(  c #5C8C2C",
")  c #5E902D",
"_  c #608C2B",
"`  c #61942F",
"'  c #629730",
"]  c #679D32",
"[  c #689F32",
"{  c #6BA334",
"}  c #6EA936",
"|  c #71AD37",
" . c #72AF38",
".. c #73B037",
"X. c #75B239",
"o. c #77B63A",
"O. c #78B73A",
"+. c #7ABA3B",
"@. c #7BBB3B",
"#. c #7BBD3B",
"$. c #7ABB3C",
"%. c #7BBC3C",
"&. c #7CBD3C",
"*. c #7EC13D",
"=. c #80C33E",
"-. c #82C63F",
";. c #83C83F",
":. c #83C740",
">. c #83C840",
",. c #84C840",
"<. c #87CE41",
"1. c #88CF42",
"2. c #8AD142",
"3. c #8CD544",
"4. c #8DD544",
/* pixels */
"] ] ] ] {  .{ ] ] }  .{ ] ] ] { ..+.%.%.} ] ] }  .{ } %.%.*.,.,.-.%.%.%.%.o.....} ] ] ] ] ] ] ] ] ] ",
"] ] {  .o.%.o. .] }  . . . . .} {  . . .o.O.{ { } | X.%.*.*.*.*.&. . . . . . .} { ]  .X.X. . . .{ ] ",
"{ [ { &.-.>.-.&.{  .o.%.%.%.+. .] { { { *.<. .{ { +.%.&.-.=.&.+.o.{ { { { }  .{ [ { &.-.>.*.&.%. .{ ",
"o.} [ {  .-...| *.=.-.-.-.-.X.} { X.o.o.&.$.{ } ..*.-.-.O.+.-.| {  .X.o.o.+.o.{ { o.%.*.,.1.<.&.+.o.",
"%.X.} { | *.} { &.-.,.,.-.-.o. .{ X.o.$.%.+.{  .o.=.-.-.+.%.-.{ { } ..o.o.o.X.{ { o.+.&.-.<.<.*.+.o.",
"%.*.-.o.....{ [ { %.,.,.=.%.%.$.+.{ { +.%.%.$.$.%.%.%.%.-.>.-.} [ [ [ [ { { {  .} { o.$.%.%.&.-.X.] ",
"%.*.-.o. .{  .X.X.$.&.&.&.%.<.&.}  .X.X.&.-.-.&.%.%.%.%.&.&.&.o.X.X.X.X.X.#.=.X. .} } } X.} } o.} ] ",
"*.*.&.o...{ o.&.&.%.%.%.%.&.<.&.} +.%.X.&.-.-.*.&.&.&.&.&.&.&.&.&.%.%.%.%.-.<.O...| { { | { {  .{ ] ",
"4.+.{ *.-.%.-.,.,.&.%.%.%.%.%.*.>.,.-.%.%.%.%.-.,.,.,.,.,.,.,.,.-.%.%.%.%.%.%.%.X.] | } [ | ....{ ] ",
" . . .%.&.%.&.*.,.-.-.-.O.} *.+. .=.>.-.-.-.-.o.| | X.&.*.-.2.,.>.-.&.%.%.%.%.%.+.X.&.&.+.} { { { } ",
"] { X.$.&.&.%.&.-.-.-.=.o.{ &.o.{ &.-.,.,.,.*. .{ {  .&.&.-.2.,.-.*.&.+.%.&.&.&.&.%.-.-.-. .{ { {  .",
"] { X.=.-.-.&.%.&.&.+.{  .+.{ | +.%.*.,.2.<.{ +.-.-.-.-.:.,.,.,.*.{ } X.%.*.-.-.-.%.&.&.&.+.o. .{ { ",
"{ | X.+.*.,.=.*.*.*.&. .o.*.X.o.%.%.&.*.;.-. .&.>.=.&.o.-.,.>.+.o.X.O.+.%.*.*.*.*.%.%.%.$.X. ... .} ",
" . . ...o.>.>.>.-.>.-.&.*.;.>.=.%.%.%.%.%.$.o.o.O. .} [ *.>.-.} } -.,.-.%.%.%.%.$.$.$.$.+.{ {  .o.%.",
"[ [ {  .o.;.+. .{ &.,.-.o.{ +.%.%.%.%.%.%.$.W 1 2 % M ..X.o.%.=.-.,.,.,.-.*.%.%.X.{ { { ..{ { +.-.2.",
"} }  .#.&.o.o.o.o.&.*.O. .{  . ...o.o. .+.&.R D Q K 2 { o.O.%.*.=.=.=.=.=.+...o.X.{ { { o. . .-.,.,.",
"+.+.%.<.-.) R / _ / R U U T U ^ ' { { ' ..&.R D Q J - ] X.X.X.X.X.X.X.X.X.{ ' { { { [ } $.%.*.2.>.%.",
"{ ..+. .] n = S S S S k h k a % 3 7 7 7 n n 1 & * & X n n n n n n n n n n 7 7 7 n n U ] { -.2.4.>.%.",
"] } X.{ R p K ~ ~ ~ ~ G F F F l J L L L Q Q Q Q Q Q L Q L L L L L L Q L L L J J J K h = < X.2.4.>.%.",
"] ] [ ] ` 6 + c ! ~ ~ K t d f f f Q z c ! ~ ~ ~ ~ J f Q x f f d f d L x f f q y y K ! ! p { *.2.>.%.",
"] { } o.X.` , + s J Q ! f J Q L D ! L e D ~ ~ ~ J t J ~ K Q L c Q J Q J Q L f Q L Q ~ Q N { %.&.X.} ",
"{ } X.&.U 4 > k K L Q ~ z L ~ ~ ~ ~ ~ z t L ~ J t J ~ ~ ~ ~ L c ~ ~ ~ ~ ~ Q f ! ~ ! K g T X.o...} { ",
"......{ . K ~ ~ ~ Q Q ~ z L ~ ! ~ ~ ~ ! f f J t J ~ Q L L L J c ! ~ ~ ~ ~ K f J v x & # / { {  .o.%.",
"{ { { { + Q Q Q Q H H Q f x c D ~ ~ ~ ~ Q f t L ~ ~ ~ ! ! ! L x G G G Q Q L f Q Q Q K x A ] { o.*.<.",
"{ { { } # d l K L Q Q Q f x x D ~ ~ ~ ~ Q x t J ~ ~ ~ ~ ~ ~ L c ~ ~ ~ Q Q Q f ! ~ ~ ~ Q C ` { %.;.2.",
"O.O.+.,.( # a J Q ~ ~ ~ x L ! ! ~ ~ ~ ! z z D t J ~ ~ ~ ~ ~ L c ~ ~ ~ ~ ~ Q f ! ~ ~ L B / o.%.1.>.*.",
"..o.%.+.V h Q Q Q ~ ~ ~ x Q ~ ~ Q ~ Q z f Q ~ D t K ~ ~ Q ~ L c ~ Q ! Q Q L f ! ~ K q 5 [ &.>.4.>.%.",
"]  .+.] 8 * J L Q ! ~ L t f x z f J f y Q ~ ~ ~ D t K ~ x f f t x t J G l f e x Q ! L a 8 O.4.4.>.%.",
"] { { ] / % s s a q c K c c c c c K J K Q Q Q Q L J K Q J c c v v J Q ~ Q K K K Q ~ ~ L i { =.2.>.%.",
"] ] ] ] ] Y Z Z Z b O * * * * * * * = = * * & @ @ @ @ & + o ; r r j x x x x x x x x x q b { o.*.+.X.",
"] ] ] [ { ..{ [ ] [ ( ^ ^ ^ ^ ( ) ' ] ] ( ^ m @ 9 9 O ^ ] ] ` b 5 5 5 5 5 5 < < $ $ $ $ I [ [ [ ] ] ",
"] ] { +.*.=.*.+.] } ..o.o.o.o. .{ { { { #.*.U q G v - { =.*.%.X. .] ] ] ] [ { ] ` `  .o.+.+.o.o.} ] ",
"{ { { +.*.>.*.+.} X.O.&.&.&.+. .[ { { { *.;.U s ~ K - { *.*.&.O.X.{ { { {  ...{ { { &.-.,.=.*.%...{ ",
"+. .[ { | -. .} -.-.-.>.>.-.X.} { o.+.+.%.o.P j ~ K :  .o.+.-.} {  .o.+.+.+.+.{ { +.%.*.,.2.2.&.#.+.",
"%.+.o.|  .+.{ { ..*.,.,.-.*.O.X. .|  .$.%.+.U k ~ Q w { &.*.-.{ { { } } } } } } } | +.&.*.-.-.=.o.} ",
"%.*.-.o... .{ { { +.-.-.*.%.&.%.+.{ { +.%.+.R D ~ Q u { -.-.-.} { { { { { { {  .} { X.+.+.+.%.-.X.] ",
"%.*.-.o. .[ X.$.$.%.%.%.%.%.2.&.{ o.+.X.*.-.E J ~ Q u { %.%.%.$.$.$.$.$.$.;.2.o... .{ { ..{ {  .{ ] ",
",.&.X.+.+. .%.*.*.&.%.%.%.%.-.*.o.&.*.o.&.*.R J ~ Q u { *.*.*.*.*.%.%.%.%.*.-.+...{ { { { { }  .{ ] ",
"2.+.{ *.-.%.-.;.,.*.&.&.$.+.&.*.-.>.-.&.&.$.R D ~ Q u | :.,.,.,.-.&.%.$.%.%.%.%.X.{  . .{ |  . .{ { ",
"{ }  .+.&.%.&.*.,.-.-.-.o.{ =.+.{ *.,.-.-.-.E J Q G u { &.-.2.,.,.-.*.$.%.%.%.%.+.O.*.-.*.} { { {  .",
"] { X.%.&.&.&.&.-.-.=.%.X.{ +.X.} &.-.,.,.-.T D Q G u { *.-.2.,.-.%.+.+.%.&.*.*.&.%.=.-.-. .{ { { } ",
"] { X.-.,.,.&.%.%.%.+.{  .$.{ | %.%.&.,.2.;.P D Q G u  .,.,.,.,.&.{ } ..%.*.,.,.-.%.%.%.%.%.+...{ ] ",
"|  ...o.+.>.-.-.-.-.=.O.&.-.*.&.%.%.%.&.*.%.T D ~ Q 0 ) =.,.;. . .&.*.*.%.&.&.&.&.%.%.%.$.} {  .X.o.",
"} } |  .o.>.-.*.#.-.-.*.&.+.-.*.%.%.%.%.%.+.T D ~ Q 0 ) &.=.-...X.-.,.>.&.&.%.%.+.X.X.o.O.{ { X.+.=.",
"[ [ {  .o.-.O. .{ %.>.-.o.{ +.$.$.$.$.$.%.+.T D ~ Q u { X.o.%.-.;.>.,.,.>.*.$.$.X.[ ] { ..{ { +.;.4.",
"o.o.o.-.=.} o.+.-.*.%. .} | { { { ....{ +.=.E J ~ Q u { +.+.%.&.&.&.&.&.&...{ ....| { { +.o.+.<.>.=.",
"o.+.&.;.*.{  .+.,.&.X.{ {  .{ { [ } } ] O.*.R D ! K : { +.+.+.O.o.o.+.+.o.} { }  ...{ } %.&.-.2.>.%.",
"{  .+.{ { ] { { { { { ] { .. .{ [ { { ] |  .P f L l : O.} { ..{ { { } ..{ { ] { { ..o.+.%.<.2.4.>.%.",
"] { | { ] ] ] ] ] ] ] ] } o.o.O.+... . .$.&.U q L j - [  .} { { { [ X.*. . . . ...o.+.%.%.-.,.4.>.%.",
"] ] ] ] ] ] ] ] ] ] ] ] } %.%.-.4.*.%.%.<.1.Y   o .   / o.X.]  . .{ &.2.&.%.%.%.%.%.%.%.%.%.*.2.>.%."
};
