/* XPM */
static char *_18192b72a8340d6881831acc19a0973mVSrVbuAFJTt4F9U[] = {
/* columns rows colors chars-per-pixel */
"50 50 29 1 ",
"  c #679E32",
". c #689F32",
"X c #6AA233",
"o c #6AA334",
"O c #6BA434",
"+ c #6CA534",
"@ c #6EA935",
"# c #70AB36",
"$ c #72AE37",
"% c #73AF38",
"& c #73B038",
"* c #75B239",
"= c #76B439",
"- c #78B73A",
"; c #7ABA3B",
": c #7BBB3C",
"> c #7BBC3C",
", c #7CBD3C",
"< c #7FC13E",
"1 c #80C33E",
"2 c #81C53F",
"3 c #83C740",
"4 c #83C840",
"5 c #84C940",
"6 c #87CD41",
"7 c #88CF42",
"8 c #8AD243",
"9 c #8BD443",
"0 c #8DD644",
/* pixels */
"    X&X  @&    O&:>>+  @& @>>,554>>>>=&&@         ",
"   %*;*$ @&@@@@@@%&&==++@@*><<22<&&&&&&@+ $&&$@@o ",
"   45552 @&>>>>*    50&+ >>>52>>;    +&   255,>>@ ",
":%  @5+X455555&@ ;::>> @&555*=5+X&;::>> +:>,580>>:",
">=@X@1OX,25532*$+==>>>+$*222=;5+.$*====X@=:,268,;=",
"><5&&&X  :551>>>>Xo>>>>>>>>>555+       &@ ;>>>>5& ",
"><5&$X=-->,,,>81o==*<22<>>>>,,,;-----<6&%$O+*+o=+ ",
",<2*$X;,,>>>>>92X::*144<,,,,,,,,,>>>>49*&$XX$oX&+ ",
"0, 42>255<>>>>><552>>>>2555555554>>>>>>>* $$ $&&+ ",
"&$@<,>,<5222=@2,$252222=$$=<<28552,>>>>>;*<<:@OO@@",
" +&>>>>,5555* 5: 255555&  @>><0555<>>>>>>>455@  @&",
" +&555,>>>> $> @>>,580 -555555552 @&>1552>>>>>>&+ ",
"+@&>,521111$;1*=>>,135$,51>*555-**;>>,11<>>>>&$&$$",
"&&&&=555555>1552>>>>>>>25>& 455+X555>>>>>>>>>+ &->",
"   &=5=$ :55* >>>>>>>>>>> @>&*>2555551>>*  X&X >50",
"@@@>>:==&,2:%O***;-*,<<<<$*>==>122222>*;*O X=@@256",
">>>05 -,02> +&   $$ ,555552>>>>>>>>>>$ &&&Xo>>>02>",
"X$>oX XXoXX +&$@ .. $*X#*X=9XO*oXX$*X. X+&;;>7902>",
" @-         @**$+ooo*=o@$X*6o+$oX $=oooo@*:>>6802>",
"            $>>20,>>80>@ &@ := $$ 20>>>>>>>>>>>02>",
" O$,,,===== $>+$<>,280+=,1<,22,1< &;><221>>>>>>;$+",
" +&455,>>>> $> @>>,580 -555455552 #&><552>>>>>:&+ ",
"&&&&=555555>1552>>>>>>>25>& 455+X555>>>>>>>>>+ &->",
"+++&=5,;&<52;&<<>>>>>>>,<@$&;><;;5552<>>=@@$=o -15",
"   &=5=$ :55* >>>>>>>>>>> @>&*>2555551>>*  X&X >50",
">>>05 -,02> +&   $$ ,555552>>>>>>>>>>$ &&&Xo>>>02>",
"&=>,- $*,=& +&+o @+ -,->,-,2&*-*&&=-&+ @#&#$>2202>",
" @>         +&&@    $& @& =0.X&X  @&    O&:>>8002>",
"            $>>20,::70:@ &@.:= $$ 20::::>>>>>>,02>",
"    .X   XX @==,6,>>25=@X$@+>;@==+18>:;;;======5,=",
"    X&X  @&    O&:>>+  @& @>>,554>>>>=&&@         ",
"   <121, @&----&Xooo26$+X-;>22,,>oooo@&XX ,<<;--@ ",
"XX 2252<X$*,,,:* XXX48$+X,,,22,;-XXXX@* .X245<,>$X",
">&  @5+X555555&@ ;>>>: @&555&=5+X&;>>>> @>>,580>>>",
">>:@$;X.$<552<;=*@#>>>*=;<<<<15+ O+@@@@@@@;><122=@",
"><5&&&X  :551>>>>Xo>>>>>>>>>555+       &@ ;>>>>5& ",
"><5&$ ->>>>>>>02 ;;&155<>>>>>>>>>>>>>50&&&XX&X &+ ",
"5<*>;$,11,>>>>5<*<<=<11111111111<>>>>15=*++++++&+ ",
"0, 42>255<>>>>><552>>>>2555555554>>>>>>>* $$ $&&+ ",
" +&>>>>,5555* 5: 255555&  @>><0555<>>>>>>>455@  @&",
" +&<<<>,222:*@:=@<2566:*$$=<<2854:;;>,<<,>222$@O@@",
" +&555,>>>> $> @>>,580 -555555552 @&>1552>>>>>>&+ ",
"$%&*-544444;<42<>>>,,,;15,*X555@+222>>,,,>>>>+X&=;",
"$$$&=522<25,<<21>>>>>>><2-%o222@@555,,>>;--;;O *;<",
"   &=5=$ :55* >>>>>>>>>>> @>&*>2555551>>*  X&X >50",
"===62@=;5<,@@$+++*&+,2222,,>;;>,,,,,,*+*&$.X;==84<",
":>>05 -,02: +&   $$ ,545541>:>>>::>>:$ &&&Xo>>,02>",
" @>         +&&@    $& @& =0.X&X  @&    O&:>>8002>",
" o@         @--;,*&&<2&@+@$=&$+@@ ;2&&&&*->>>2202>",
"            $>>20,>>80>@ &@ := $$ 20>>>>>>>>>>>02>"
};
