/* XPM */
static char *_5fcd14a09e54da09c9e4fef9c6fac73aw9FWisgp0qo0H3Y[] = {
/* columns rows colors chars-per-pixel */
"50 50 29 1 ",
"  c #BF330F",
". c #BF3713",
"X c #BF3714",
"o c #BF3815",
"O c #BE3E1A",
"+ c #BE3F1C",
"@ c #BE411E",
"# c #BE4320",
"$ c #BE4523",
"% c #BE4724",
"& c #BD4A27",
"* c #BD4A28",
"= c #BD4D2B",
"- c #BD4E2C",
"; c #BD512F",
": c #BD5331",
"> c #BD5432",
", c #BD5635",
"< c #BC5837",
"1 c #BC5B39",
"2 c #BC5F3E",
"3 c #BC603F",
"4 c #BC6241",
"5 c #BC6443",
"6 c #BB6646",
"7 c #BB6847",
"8 c #BB6948",
"9 c #BB6C4B",
"0 c #BB6C4C",
/* pixels */
"08555588555555555555555555555555566555555555555558",
"0>    46                         &$              5",
"0>    46                         &$              5",
"5     46                        o8$              5",
"5     46                        o0$              5",
"5     46               $;       o01.             5",
"5     46               oO       o00.           : 5",
"60000006006000000000000000000000000000000000000868",
".,,06,,.20.,,,,,,,,,,,02,,,,,,,,,,,,,,,,,,,04,,* ;",
"   $@  <3:            4o                   =;     ",
"      2.*$ 2      2   1                    O;     ",
"                     31                    %;     ",
"                     ;1                    0;     ",
"o22222o.-            @82o    O221          0;     ",
"00888008880000088000000000000888888888888888888000",
"<<O O<<   ,<<<<*&<<<<06<<<<<<              :   <50",
"                     01                         >=",
"                     01                         >o",
"       .;       o OOO02OO    ooOOOOOOX         .<o",
"================3;0000000====520000001=========,0;",
"000000000000000000&00000000004<0000000*$000&000000",
"      40088O-27 ,8        *$                      ",
"       0,     #O   o.    o43                      ",
"       0,     =<   Oo:   .21                      ",
"       0,      X     o   o00                      ",
"       8;                 *0                      ",
"       8@             # %.<0*$+*************+     ",
"o11 O1o0611111111111116182000650000000000000511111",
"800880800000000<,000001  5 102         .00oO:28000",
"                    201                      28   ",
"                    201                      2=   ",
"                    201                      2    ",
"                    20,                      2    ",
"                    28@                      2    ",
"                    206@::@<<-%<<<<<<<,<<<<<<6    ",
"88888888888888888888800899800880000000000000008888",
"       40$ O222; 1,%2 @$ .o: :   .2322O.228$* 2228",
"       X0$               .#      &0.      =&     5",
"       .0$                       &0.             5",
".      .0$                       &08             5",
":      o0$                       @<.             5",
"       <0$                       @,,             5",
"666666680866666666666666666666664&0066666666666668",
"o44 4&<44444&  @$244401=44= 4O44444444444808444444",
"                     8&                  $84      ",
"                     8                    @4      ",
"                     8                     4      ",
"                    +8                     0;     ",
"   :                29>@                   0;     ",
"2 >05&15555555555555800655555555555555555550855555"
};
